<?xml version="1.0" encoding="UTF-8"?>
<svg width="512" height="512" viewBox="0 0 512 512" fill="none" xmlns="http://www.w3.org/2000/svg">
  <title>prodex</title>
  <desc>Minimal prodex icon: circle outline with glasses.</desc>

  <!-- Outer circle -->
  <circle cx="256" cy="256" r="214" stroke="#000" stroke-width="18" />

  <!-- Glasses (stylized) -->
  <g fill="#000">
    <!-- Left lens frame -->
    <path d="M149 222c-23 0-41 18-41 41v6c0 23 18 41 41 41h69c23 0 41-18 41-41v-6c0-23-18-41-41-41h-69Zm0 18h69c13 0 23 10 23 23v6c0 13-10 23-23 23h-69c-13 0-23-10-23-23v-6c0-13 10-23 23-23Z"/>

    <!-- Right lens frame -->
    <path d="M294 222c-23 0-41 18-41 41v6c0 23 18 41 41 41h69c23 0 41-18 41-41v-6c0-23-18-41-41-41h-69Zm0 18h69c13 0 23 10 23 23v6c0 13-10 23-23 23h-69c-13 0-23-10-23-23v-6c0-13 10-23 23-23Z"/>

    <!-- Bridge -->
    <path d="M252 252h8c8 0 14 6 14 14v2h-36v-2c0-8 6-14 14-14Z"/>

    <!-- Temples (arms) -->
    <path d="M108 242c-9 0-17-3-24-9l10-14c4 4 9 5 14 5h8v18h-8Z"/>
    <path d="M404 242h-8v-18h8c5 0 10-1 14-5l10 14c-7 6-15 9-24 9Z"/>
  </g>
</svg>
